HIERARCHY
ROOT Hips
{
	OFFSET	0	0	0
	CHANNELS 6  Xposition Yposition Zposition Xrotation Yrotation Zrotation
	JOINT Spine
	{
		OFFSET	0	6.43035	1.29592
		CHANNELS 3  Xrotation Yrotation Zrotation
		JOINT Spine1
		{
			OFFSET	0	11.0515	-1.97348
			CHANNELS 3  Xrotation Yrotation Zrotation
			JOINT Spine2
			{
				OFFSET	0	8.37743	0.897934
				CHANNELS 3  Xrotation Yrotation Zrotation
				JOINT Spine3
				{
					OFFSET	0	10.0253	2.97996
					CHANNELS 3  Xrotation Yrotation Zrotation
					JOINT Spine4
					{
						OFFSET	0	14.8406	-1.51958
						CHANNELS 3  Xrotation Yrotation Zrotation
						JOINT Neck
						{
							OFFSET	0	7.0848	-4.96331
							CHANNELS 3  Xrotation Yrotation Zrotation
							JOINT Head
							{
								OFFSET	0	8.50571	-2.54579
								CHANNELS 3  Xrotation Yrotation Zrotation
								End Site
								{
									OFFSET	0	17.7416	-0.858465
								}
							}
						}
					}
					JOINT LeftShoulder
					{
						OFFSET	-4.26272	18.0376	-8.50571
						CHANNELS 3  Xrotation Yrotation Zrotation
						JOINT LeftArm
						{
							OFFSET	-9.26857	-2.54579	3.26613
							CHANNELS 3  Xrotation Yrotation Zrotation
							JOINT LeftForeArm
							{
								OFFSET	-28.2392	-1.28889	2.01568
								CHANNELS 3  Xrotation Yrotation Zrotation
								JOINT LeftHand
								{
									OFFSET	-22.9751	-1.58771	1.63994
									CHANNELS 3  Xrotation Yrotation Zrotation
									End Site
									{
										OFFSET	-8.38477	-0.579434	0.598457
									}
								}
							}
						}
					}
					JOINT RightShoulder
					{
						OFFSET	4.26272	18.0376	-8.50571
						CHANNELS 3  Xrotation Yrotation Zrotation
						JOINT RightArm
						{
							OFFSET	9.26857	-2.54579	3.26613
							CHANNELS 3  Xrotation Yrotation Zrotation
							JOINT RightForeArm
							{
								OFFSET	28.2392	-1.28889	2.01568
								CHANNELS 3  Xrotation Yrotation Zrotation
								JOINT RightHand
								{
									OFFSET	22.9751	-1.58771	1.63994
									CHANNELS 3  Xrotation Yrotation Zrotation
									End Site
									{
										OFFSET	8.38477	-0.579434	0.598457
									}
								}
							}
						}
					}
				}
			}
		}
	}
	JOINT LeftUpLeg
	{
		OFFSET	-8.79432	-3.21518	-0.64796
		CHANNELS 3  Xrotation Yrotation Zrotation
		JOINT LeftLeg
		{
			OFFSET	-1.93242	-37.8649	-0.591911
			CHANNELS 3  Xrotation Yrotation Zrotation
			JOINT LeftFoot
			{
				OFFSET	-1.8889	-34.8184	2.99439
				CHANNELS 3  Xrotation Yrotation Zrotation
				JOINT LeftToeBase
				{
					OFFSET	0	-4.3392	-11.5249
					CHANNELS 3  Xrotation Yrotation Zrotation
					End Site
					{
						OFFSET	0	-1.73568	-6.94272
					}
				}
			}
		}
	}
	JOINT RightUpLeg
	{
		OFFSET	8.79432	-3.21518	-0.64796
		CHANNELS 3  Xrotation Yrotation Zrotation
		JOINT RightLeg
		{
			OFFSET	1.93242	-37.8649	-0.591911
			CHANNELS 3  Xrotation Yrotation Zrotation
			JOINT RightFoot
			{
				OFFSET	1.8889	-34.8184	2.99439
				CHANNELS 3  Xrotation Yrotation Zrotation
				JOINT RightToeBase
				{
					OFFSET	0	-4.3392	-11.5249
					CHANNELS 3  Xrotation Yrotation Zrotation
					End Site
					{
						OFFSET	0	-1.73568	-6.94272
					}
				}
			}
		}
	}
}
MOTION
Frames: 13
Frame Time: 0.020408
 17.6808 72.7202 -25.6602 23.6872 -174.987 10.6767 0.000169104 0.00782174 -1.23853 13.7702 0.015637 -2.06421 14.6295 0.0469109 -2.06422 11.7546 0.00782174 -1.23853 178.582 179.99 179.587 162.747 -175.473 173.176 174.832 -174.807 177.59 0.264013 -27.601 0.573446 170.269 -158.486 -96.6564 100.946 -159.444 114.273 -0 -10.9795 -6.65726 172.853 172.407 -165.187 139.494 -164.031 97.3932 104.659 137.698 -108.742 -0 18.3449 27.8226 48.957 -8.47636 -0.955171 118.718 166.44 179.918 33.9325 0.00711326 8.79926 173.385 180 -180 62.8239 -29.0521 22.7895 154.328 -179.083 -179.47 168.626 179.988 168.607 169.52 180 -180
 17.8814 72.8109 -25.7778 23.7176 -174.425 10.5666 180 -179.988 178.766 13.7795 -0.0234667 -2.05628 14.6248 -0.0704002 -2.05628 11.7277 -0.0117382 -1.23377 178.664 179.99 179.589 162.948 -176.388 172.799 174.913 -176.822 177.741 0.356709 -27.2965 0.774797 170.323 -158.819 -96.771 100.821 -159.412 114.039 -0 -11.0401 -6.71674 172.762 171.389 -164.901 138.99 -164.192 97.1905 105.096 137.842 -109.302 -0 18.2829 27.6754 49.2382 -7.82581 -0.298843 119.014 166.199 179.783 33.4397 0.0476395 8.7458 173.366 180 -180 62.5682 -28.975 23.2421 154.393 -179.067 -179.545 169.345 179.976 168.639 169.518 180 -180
 18.2602 72.852 -25.8561 23.4753 -173.707 10.3096 180 -179.983 178.776 13.7177 -0.0337815 -2.03993 14.549 -0.101344 -2.03993 11.6466 -0.0168976 -1.22396 178.737 179.991 179.592 163.2 -177.333 172.586 175 -178.823 177.928 0.438316 -26.8249 0.952016 169.719 -159.1 -96.7022 100.891 -159.48 114.075 -0 -11.1242 -6.71516 172.774 170.556 -164.856 138.499 -164.34 96.8808 105.297 137.95 -109.583 -0 18.2738 27.5183 49.2698 -7.29656 0.597526 119.016 166.022 179.735 32.8477 0.0618778 8.71408 173.347 180 -180 62.0074 -28.7818 23.8787 154.886 -179.026 -179.614 169.818 179.971 168.661 169.516 180 -180
 18.7005 72.8215 -25.964 23.2167 -172.967 9.95895 180 -179.994 178.797 13.6698 -0.0127062 -2.00553 14.4769 -0.0381187 -2.00553 11.5374 -0.00635561 -1.20332 178.901 179.992 179.599 163.701 -178.311 172.395 175.154 179.061 178.128 0.700826 -26.8759 1.52228 169.577 -159.06 -96.7509 100.781 -159.487 113.892 -0 -11.313 -6.7269 172.656 169.92 -164.549 138.023 -164.253 96.6582 105.395 138.043 -109.804 -0 18.3076 27.4033 49.1668 -6.99714 1.58835 119.067 165.867 179.787 32.6152 0.0404114 8.6961 173.329 180 -180 61.5617 -27.9341 24.5224 155.34 -179.077 -179.662 170.442 179.977 168.618 169.514 180 -180
 18.9049 72.8127 -26.1413 23.0347 -172.511 9.71279 180 -179.995 178.802 13.6239 -0.0093447 -1.99681 14.4198 -0.0280341 -1.99681 11.4724 -0.00467416 -1.19809 178.966 179.993 179.601 163.934 -179.195 172.454 175.218 177.339 178.345 0.880175 -27.0999 1.91201 169.458 -158.893 -96.8522 100.635 -159.464 113.646 -0 -11.5784 -6.74914 172.65 169.393 -164.495 137.661 -164.375 96.1498 105.093 138.027 -109.421 -0 18.4441 27.325 49.0163 -6.89786 2.33076 119.249 165.703 179.775 32.5877 0.0640027 8.66726 173.315 180 -180 61.0077 -27.2605 24.763 155.541 -179.119 -179.868 170.715 179.991 168.54 169.511 180 -180
 19.1024 72.8093 -26.1268 22.7932 -172.145 9.49714 180 -179.996 178.816 13.5857 -0.00873814 -1.97327 14.3725 -0.0262144 -1.97327 11.4195 -0.00437073 -1.18396 179.017 179.993 179.605 164.127 -179.879 172.659 175.267 176.097 178.542 0.914804 -27.4677 1.98729 168.975 -158.672 -97.2296 100.612 -159.494 113.461 -0 -11.9104 -6.81358 172.713 168.763 -164.583 137.624 -164.706 95.431 103.987 137.806 -107.929 -0 18.7391 27.3848 48.7074 -7.21225 2.90148 119.356 165.578 179.856 32.5435 0.0559405 8.66073 173.3 180 -180 60.5371 -26.3987 25.0777 155.65 -179.222 -179.929 170.521 -179.987 168.514 169.507 180 -180
 19.4174 72.7655 -26.13 22.5213 -171.944 9.0945 180 -179.995 178.846 13.5458 -0.0109349 -1.92253 14.3329 -0.0328047 -1.92253 11.3943 -0.00546943 -1.15352 179 179.993 179.616 164.143 179.559 173.263 175.259 175.362 178.788 0.936171 -27.6306 2.0337 168.03 -158.323 -97.4134 100.396 -159.372 112.821 -0 -12.2502 -7.02333 172.624 168.1 -164.339 137.869 -164.666 95.069 102.874 137.556 -106.307 -0 18.9764 27.5373 48.378 -7.43925 3.85365 119.423 165.452 179.834 32.5934 0.0748712 8.63616 173.288 180 -180 59.9782 -25.6285 25.423 155.735 -179.357 -179.875 170.239 -179.999 168.53 169.503 180 -180
 19.6603 72.7437 -26.0578 22.2147 -171.341 8.79514 180 -179.996 178.889 13.5365 -0.00701462 -1.85141 14.3276 -0.0210439 -1.85141 11.3991 -0.00350848 -1.11085 178.971 179.993 179.63 164.081 179.177 173.503 175.232 174.779 178.922 0.862524 -27.6622 1.87366 166.669 -158.099 -97.7227 100.262 -159.282 112.426 -0 -12.5273 -7.23143 172.597 167.109 -164.211 138.55 -164.549 95.0626 101.888 137.376 -104.815 -0 19.1825 27.6849 47.9898 -7.69917 4.71158 119.515 165.34 179.876 32.5473 0.0807232 8.61032 173.275 180 -180 59.3746 -25.084 25.8814 155.814 -179.467 -179.904 170.786 179.986 168.523 169.498 180 -180
 19.9505 72.717 -26.0239 21.7791 -171.337 8.34941 180 -179.989 178.918 13.5322 -0.0210309 -1.80295 14.3327 -0.0630926 -1.80295 11.427 -0.0105188 -1.08177 178.899 179.993 179.639 163.89 178.791 173.778 175.166 174.231 179.064 0.802293 -27.8028 1.74277 165.772 -158.015 -98.2118 100.222 -159.235 112.201 -0 -12.6734 -7.31658 172.542 166.741 -164.066 138.413 -164.513 94.8712 101.446 137.331 -104.223 -0 19.3069 27.7461 47.6027 -7.9452 5.43656 119.602 165.231 179.935 32.5422 0.0843831 8.58908 173.265 180 -180 59.0014 -24.4932 26.3052 155.843 -179.541 -179.916 170.837 179.991 168.516 169.493 180 -180
 20.3563 72.6943 -26.0567 21.4239 -171.444 7.81643 180 -179.998 178.945 13.5246 -0.003486 -1.75756 14.3379 -0.010458 -1.75756 11.4568 -0.00174353 -1.05453 178.814 179.993 179.649 163.67 178.443 174.094 175.092 173.78 179.206 0.920117 -27.9809 1.99873 165.35 -157.929 -98.3774 100.083 -159.154 111.931 -0 -12.7584 -7.36003 172.641 166.577 -164.273 138.178 -164.722 94.3714 100.933 137.272 -103.547 -0 19.4409 27.7715 47.2337 -8.12687 6.08519 119.678 165.175 179.996 32.4771 0.0554451 8.58121 173.26 180 -180 58.9526 -23.758 26.7699 155.954 -179.624 -179.906 170.788 179.983 168.515 169.489 180 -180
 20.559 72.657 -26.2152 21.1697 -171.132 7.74413 0.000268485 0.0147323 -1.04405 13.5316 0.029456 -1.74009 14.3471 0.088368 -1.74009 11.4619 0.0147323 -1.04405 178.814 179.993 179.652 163.676 178.242 174.468 175.088 173.599 179.326 0.923397 -27.8925 2.00589 164.836 -158.203 -98.7039 100.047 -159.1 111.921 -0 -12.7181 -7.43274 172.618 166.548 -164.219 137.589 -164.793 94.1423 101.037 137.344 -103.537 -0 19.4639 27.6709 46.8911 -8.32722 6.4986 119.697 165.043 -179.997 32.6317 0.0246621 8.43154 173.256 180 -180 58.8885 -23.2091 27.1082 156.05 -179.741 -179.921 169.951 179.994 168.516 169.486 180 -180
 20.742 72.6293 -26.1156 21.0028 -170.865 7.62053 0.000158901 0.00887684 -1.02552 13.5331 0.0177486 -1.7092 14.3365 0.0532458 -1.7092 11.429 0.00887684 -1.02552 178.894 179.993 179.658 163.908 178.278 174.727 175.158 173.776 179.367 1.01559 -27.6903 2.20629 164.833 -158.622 -98.886 99.9785 -159.014 111.754 -0 -12.6145 -7.55468 172.72 166.442 -164.438 137.112 -165.116 93.6895 100.802 137.369 -103.196 -0 19.5921 27.5781 46.539 -8.45025 6.79451 119.772 164.923 -179.982 32.8141 -0.00247761 8.30746 173.249 180 -180 58.9608 -22.6747 27.5572 155.737 -179.804 -179.984 168.542 -179.993 168.526 169.483 180 -180
 20.7624 72.5922 -26.0327 20.8308 -170.264 7.62656 9.96783e-05 0.0057832 -0.987443 13.5418 0.0115633 -1.64574 14.3406 0.03469 -1.64574 11.4221 0.0057832 -0.987443 178.927 179.994 179.671 163.998 178.447 175.076 175.188 174.279 179.396 1.06022 -27.4583 2.3033 164.935 -159.035 -99.0079 99.845 -158.908 111.548 -0 -12.4784 -7.62867 172.782 166.305 -164.565 136.706 -165.246 93.5647 101.144 137.539 -103.683 -0 19.6404 27.3924 46.1463 -8.57756 6.98831 119.779 164.813 -179.983 32.9602 -0.0133473 8.20394 173.243 180 -180 58.9594 -22.2797 27.9156 155.324 -179.752 -179.967 166.826 -179.983 168.532 169.479 180 -180
